<svg xmlns="http://www.w3.org/2000/svg">
  <symbol id="search" viewBox="0 0 16 16">
    <path d="M15.707 14.293l-5-5-1.414 1.414 5 5a1 1 0 0 0 1.414-1.414z"/>
    <path fill-rule="evenodd" d="M6 10a4 4 0 1 0 0-8 4 4 0 0 0 0 8zm0 2A6 6 0 1 0 6 0a6 6 0 0 0 0 12z"/>
  </symbol>
  <symbol id="filter" viewBox="0 0 12 12">
    <path opacity=".4" d="M5 9.2l2 1.6V6.1L8.55 4h-5.1L5 6.1v3.1z"/>
    <path d="M1.18 2.6A1 1 0 0 1 2 1H10a1 1 0 0 1 .8 1.6L8 6.4v4.82c0 .63-.72.98-1.22.6l-2.5-1.99A.75.75 0 0 1 4 9.25V6.41L1.18 2.6zM2 2L5 6.09v3.04l2 1.59V6.09L10.01 2H2z"/>
  </symbol>
  <symbol id="select-arrow" viewBox="0 0 16 16">
    <path d="M7.9 16.3c-.3 0-.6-.1-.8-.4l-4-4.8c-.2-.3-.3-.5-.1-.8.1-.3.5-.3.9-.3h8c.4 0 .7 0 .9.3.2.4.1.6-.1.9l-4 4.8c-.2.3-.5.3-.8.3zM7.8 0c.3 0 .6.1.7.4L12.4 5c.2.3.3.4.1.7-.1.4-.5.3-.8.3H3.9c-.4 0-.8.1-.9-.2-.2-.4-.1-.6.1-.9L7 .3c.2-.3.5-.3.8-.3z"/>
  </symbol>
  <symbol id="command-frames" viewBox="0 0 16 16">
    <path d="M6 7v6H5V7H2V6h12v1H6zm7-6a3 3 0 0 1 3 3v8a3 3 0 0 1-3 3H3a3 3 0 0 1-3-3V4a3 3 0 0 1 3-3h10zM3 3a1 1 0 0 0-1 1v8c0 .6.4 1 1 1h10c.6 0 1-.4 1-1V4c0-.6-.4-1-1-1H3z"/>
  </symbol>
  <symbol id="command-measure" viewBox="0 0 16 16">
    <path d="M0 5c0-1.1.9-2 2-2h12a2 2 0 0 1 2 2v6a2 2 0 0 1-2 2H2a2 2 0 0 1-2-2V5zm14 0H2v6h12V5zM5 5v2.5a.5.5 0 0 1-1 0V5h1zM7 5v1.5a.5.5 0 0 1-1 0V5h1zM11 5v1.5a.5.5 0 0 1-1 0V5h1zM9 5v2.5a.5.5 0 0 1-1 0V5h1zM13 5v2.5a.5.5 0 0 1-1 0V5h1z"/>
  </symbol>
  <symbol id="command-paintflashing" viewBox="0 0 16 16">
    <path opacity=".3" d="M3 10h10v3H3v-3z"/>
    <path d="M1 9a3 3 0 0 1 3-3h8a3 3 0 0 1 3 3v3a3 3 0 0 1-3 3H4a3 3 0 0 1-3-3V9zm3-1a1 1 0 0 0-1 1v3a1 1 0 0 0 1 1h8a1 1 0 0 0 1-1V9a1 1 0 0 0-1-1H4zM8 0a1 1 0 0 1 1 1v2h3a1 1 0 1 1 0 2H4a1 1 0 0 1 0-2h3V1a1 1 0 0 1 1-1z"/>
  </symbol>
  <symbol id="command-pick" viewBox="0 0 16 16">
    <path d="M3 3a1 1 0 0 0-1 1v8a1 1 0 0 0 1 1h2.6a1 1 0 1 1 0 2H3a3 3 0 0 1-3-3V4a3 3 0 0 1 3-3h10a3 3 0 0 1 3 3v2.6a1 1 0 1 1-2 0V4a1 1 0 0 0-1-1H3zM12.87 14.6c.3.36.85.4 1.2.1.36-.31.4-.86.1-1.22l-1.82-2.13 2.42-1a.3.3 0 0 0 .01-.56L7.43 6.43a.3.3 0 0 0-.42.35l2.13 7.89a.3.3 0 0 0 .55.07l1.35-2.28 1.83 2.14z"/>
  </symbol>
  <symbol id="command-responsivemode" viewBox="0 0 16 16">
    <path d="M1 4h5a1 1 0 0 1 1 1v10a1 1 0 0 1-1 1H1a1 1 0 0 1-1-1V5a1 1 0 0 1 1-1zm0 2v8h5V6H1zM5 0a2 2 0 0 0-2 2v1h2V2h8v12H8v2h5a2 2 0 0 0 2-2V2a2 2 0 0 0-2-2H5z"/>
  </symbol>
  <symbol id="command-rulers" viewBox="0 0 16 16">
    <path d="M3 3a1 1 0 0 0-1 1v10h4V8a1 1 0 0 1 1-1h7V3H3zM0 4a3 3 0 0 1 3-3h11a2 2 0 0 1 2 2v4a2 2 0 0 1-2 2H8v5a2 2 0 0 1-2 2H2a2 2 0 0 1-2-2V4zM3.5 11H2v1h1.5a.5.5 0 0 0 0-1zM6 4.5V3H5v1.5a.5.5 0 0 0 1 0zM9 4.5V3H8v1.5a.5.5 0 0 0 1 0zM12 4.5V3h-1v1.5a.5.5 0 0 0 1 0zM3.5 8H2v1h1.5a.5.5 0 0 0 0-1zM3.5 5H2v1h1.5a.5.5 0 0 0 0-1z"/>
  </symbol>
  <symbol id="command-screenshot" viewBox="0 0 16 16">
    <path d="M3 4a1 1 0 0 0-1 1v7a1 1 0 0 0 1 1h10a1 1 0 0 0 1-1V5a1 1 0 0 0-1-1H3zM0 5a3 3 0 0 1 3-3h10a3 3 0 0 1 3 3v7a3 3 0 0 1-3 3H3a3 3 0 0 1-3-3V5M3 2h3a1 1 0 0 0-1-1H4a1 1 0 0 0-1 1zM8 6a2.5 2.5 0 1 0 0 5 2.5 2.5 0 0 0 0-5zM4.5 8.5a3.5 3.5 0 1 1 7 0 3.5 3.5 0 0 1-7 0z"/>
  </symbol>
  <symbol id="tool-accessibility" viewBox="0 0 16 16">
    <circle cx="8" cy="2.2" r="2"/>
    <path d="M1 6a1 1 0 0 1 1-1h12a1 1 0 1 1 0 2h-3v8a1 1 0 1 1-2 0v-4H7v4a1 1 0 1 1-2 0V7H2a1 1 0 0 1-1-1z"/>
  </symbol>
  <symbol id="tool-application" viewBox="0 0 16 16">
    <path fill="none" stroke="context-fill #0c0c0d" d="M4 1.5H2a.5.5 0 0 0-.5.5v2c0 .28.22.5.5.5h2a.5.5 0 0 0 .5-.5V2a.5.5 0 0 0-.5-.5zM9 1.5H7a.5.5 0 0 0-.5.5v2c0 .28.22.5.5.5h2a.5.5 0 0 0 .5-.5V2a.5.5 0 0 0-.5-.5zM14 1.5h-2a.5.5 0 0 0-.5.5v2c0 .28.22.5.5.5h2a.5.5 0 0 0 .5-.5V2a.5.5 0 0 0-.5-.5zM4 6.5H2a.5.5 0 0 0-.5.5v2c0 .28.22.5.5.5h2a.5.5 0 0 0 .5-.5V7a.5.5 0 0 0-.5-.5zM9 6.5H7a.5.5 0 0 0-.5.5v2c0 .28.22.5.5.5h2a.5.5 0 0 0 .5-.5V7a.5.5 0 0 0-.5-.5zM14 6.5h-2a.5.5 0 0 0-.5.5v2c0 .28.22.5.5.5h2a.5.5 0 0 0 .5-.5V7a.5.5 0 0 0-.5-.5zM4 11.5H2a.5.5 0 0 0-.5.5v2c0 .28.22.5.5.5h2a.5.5 0 0 0 .5-.5v-2a.5.5 0 0 0-.5-.5zM9 11.5H7a.5.5 0 0 0-.5.5v2c0 .28.22.5.5.5h2a.5.5 0 0 0 .5-.5v-2a.5.5 0 0 0-.5-.5zM14 11.5h-2a.5.5 0 0 0-.5.5v2c0 .28.22.5.5.5h2a.5.5 0 0 0 .5-.5v-2a.5.5 0 0 0-.5-.5z"/>
  </symbol>
  <symbol id="tool-debugger" viewBox="0 0 16 16">
    <path d="M2.5 4a.5.5 0 0 0-.5.5v7c0 .28.22.5.5.5h7.55l3.6-4-3.6-4H2.5zM0 4.5A2.5 2.5 0 0 1 2.5 2h8a1 1 0 0 1 .74.33l4.5 5a1 1 0 0 1 0 1.34l-4.5 5a1 1 0 0 1-.74.33h-8A2.5 2.5 0 0 1 0 11.5v-7z"/>
  </symbol>
  <symbol id="tool-dom" viewBox="0 0 16 16">
    <path d="M9.8 15.2a1 1 0 0 1 0-1.4l3.79-3.8-3.8-3.8a1 1 0 0 1 1.42-1.4l4.5 4.5a1 1 0 0 1 0 1.4l-4.5 4.5a1 1 0 0 1-1.42 0zM6.2.8a1 1 0 0 1 0 1.4L2.42 6l3.8 3.8a1 1 0 0 1-1.42 1.4L.3 6.7a1.01 1.01 0 0 1 0-1.4L4.8.8a1 1 0 0 1 1.42 0z"/>
  </symbol>
  <symbol id="tool-inspector" viewBox="0 0 16 16">
    <path d="M4.5 4a.5.5 0 0 0-.5.5v7c0 .28.22.5.5.5h7a.5.5 0 0 0 .5-.5v-7a.5.5 0 0 0-.5-.5h-7zM2 4.5A2.5 2.5 0 0 1 4.5 2h7A2.5 2.5 0 0 1 14 4.5v7a2.5 2.5 0 0 1-2.5 2.5h-7A2.5 2.5 0 0 1 2 11.5v-7M.5 7.5a.5.5 0 0 0 0 1H2v-1H.5zM14 7.5h1.5a.5.5 0 0 1 0 1H14v-1zM8 0c.28 0 .5.22.5.5V2h-1V.5c0-.28.22-.5.5-.5zM8.5 14v1.5a.5.5 0 0 1-1 0V14h1z"/>
  </symbol>
  <symbol id="tool-memory" viewBox="0 0 16 16">
    <path d="M3 4a3 3 0 0 1 3-3h4a3 3 0 0 1 3 3v8a3 3 0 0 1-3 3H6a3 3 0 0 1-3-3V4zm3-1a1 1 0 0 0-1 1v8a1 1 0 0 0 1 1h4a1 1 0 0 0 1-1V4a1 1 0 0 0-1-1H6M13.82 4.03a.5.5 0 0 1 .5.09l1.5 1.25a.5.5 0 0 1-.64.76L13.9 5.07l-.9.34V4.34l.82-.3zM13.82 7.03a.5.5 0 0 1 .5.09l1.5 1.25a.5.5 0 0 1-.64.76L13.9 8.07l-.9.34V7.34l.82-.3zM13.82 10.03a.5.5 0 0 1 .5.09l1.5 1.25a.5.5 0 0 1-.64.76l-1.28-1.06-.9.34v-1.07l.82-.3zM2.18 4.03a.5.5 0 0 0-.5.09L.18 5.37a.5.5 0 1 0 .64.76L2.1 5.07l.9.34V4.34l-.82-.3zM2.18 7.03a.5.5 0 0 0-.5.09L.18 8.37a.5.5 0 1 0 .64.76L2.1 8.07l.9.34V7.34l-.82-.3zM2.18 10.03a.5.5 0 0 0-.5.09l-1.5 1.25a.5.5 0 1 0 .64.76l1.28-1.06.9.34v-1.07l-.82-.3z"/>
  </symbol>
  <symbol id="tool-network" viewBox="0 0 16 16">
    <path d="M12 14a1 1 0 0 0 1-1V2a1 1 0 1 0-2 0v11a1 1 0 0 0 1 1M12 15c.23 0 .45-.1.6-.3l3.25-4.24a.75.75 0 0 0-1.08-1.03L12 11.77 9.23 9.43a.75.75 0 0 0-1.08 1.03l3.25 4.25c.15.18.37.29.6.29zM4 2a1 1 0 0 1 1 1v11a1 1 0 1 1-2 0V3a1 1 0 0 1 1-1M4 1c.23 0 .45.1.6.3l3.25 4.24a.75.75 0 0 1-1.08 1.03L4 4.23 1.23 6.57A.75.75 0 0 1 .15 5.54L3.4 1.3c.15-.18.37-.29.6-.29z"/>
  </symbol>
  <symbol id="tool-profiler" viewBox="0 0 16 16">
    <path d="M8 0A8 8 0 0 0 .78 11.43a1 1 0 1 0 1.8-.86 5.94 5.94 0 0 1 0-5.17 6 6 0 0 1 10.83 5.17 1 1 0 1 0 1.81.86A7.99 7.99 0 0 0 8 0M10 12a2 2 0 1 1-4 0 2 2 0 0 1 4 0M10.96 6.7a.5.5 0 1 0-.92-.4l-1.7 3.73a2 2 0 0 1 .92.41l1.7-3.73z"/>
  </symbol>
  <symbol id="tool-scratchpad" viewBox="0 0 16 16">
    <path d="M1 5a3 3 0 0 1 3-3h8a3 3 0 0 1 3 3v8a3 3 0 0 1-3 3H4a3 3 0 0 1-3-3V5zm3-1a1 1 0 0 0-1 1v8a1 1 0 0 0 1 1h8a1 1 0 0 0 1-1V5a1 1 0 0 0-1-1H4zM5 7h4c.27 0 .5-.23.5-.5S9.27 6 9 6H5c-.27 0-.5.23-.5.5s.23.5.5.5zm0 4h2c.27 0 .5-.23.5-.5S7.27 10 7 10H5c-.27 0-.5.23-.5.5s.23.5.5.5zm1-2h5c.27 0 .5-.23.5-.5S11.27 8 11 8H6c-.27 0-.5.23-.5.5s.23.5.5.5zM5 .5c0-.27-.23-.5-.5-.5S4 .23 4 .5V2h1V.5zM8.5.5C8.5.23 8.27 0 8 0s-.5.23-.5.5V2h1V.5zM12 .5c0-.27-.23-.5-.5-.5s-.5.23-.5.5V2h1V.5z"/>
  </symbol>
  <symbol id="tool-storage" viewBox="0 0 16 16">
    <path d="M4 0h8a3 3 0 0 1 3 3v10a3 3 0 0 1-3 3H4a3 3 0 0 1-3-3V3a3 3 0 0 1 3-3zm0 2a1 1 0 0 0-1 1v10a1 1 0 0 0 1 1h8a1 1 0 0 0 1-1V3a1 1 0 0 0-1-1H4zM3 7h10v1H3V7zM9.5 4h-3a.5.5 0 0 0 0 1h3a.5.5 0 0 0 0-1zM9.5 10h-3a.5.5 0 0 0 0 1h3a.5.5 0 0 0 0-1z"/>
  </symbol>
  <symbol id="tool-styleeditor" viewBox="0 0 16 16">
    <path d="M13.2 14.08c-.62.63-1.55.92-2.7.92a1 1 0 1 1 0-2c.85 0 1.17-.21 1.3-.33.11-.12.2-.32.2-.67v-1.9a2.74 2.74 0 0 1 .91-2.1A2.74 2.74 0 0 1 12 5.9V4c0-.35-.09-.55-.2-.67-.13-.12-.45-.33-1.3-.33a1 1 0 1 1 0-2c1.15 0 2.08.29 2.7.92.64.63.8 1.43.8 2.08v1.9c0 .41.27.65.57.89l.55.43a1 1 0 0 1 0 1.56l-.55.43c-.3.24-.57.48-.57.89V12c0 .65-.16 1.45-.8 2.08zM2.8 14.08c.62.63 1.55.92 2.7.92a1 1 0 1 0 0-2c-.85 0-1.17-.21-1.3-.33-.11-.12-.2-.32-.2-.67v-1.9A2.74 2.74 0 0 0 3.09 8l.18-.2C3.7 7.34 4 6.73 4 5.9V4c0-.35.09-.55.2-.67.13-.12.45-.33 1.3-.33a1 1 0 1 0 0-2c-1.15 0-2.08.29-2.7.92C2.15 2.55 2 3.35 2 4v1.9c0 .41-.27.65-.57.89l-.55.43a1 1 0 0 0 0 1.56c.2.17.4.3.55.43.3.24.57.48.57.89V12c0 .65.16 1.45.8 2.08z"/>
  </symbol>
  <symbol id="tool-webconsole" viewBox="0 0 16 16">
    <path d="M0 4a3 3 0 0 1 3-3h10a3 3 0 0 1 3 3v8a3 3 0 0 1-3 3H3a3 3 0 0 1-3-3V4zm3-1a1 1 0 0 0-1 1v8a1 1 0 0 0 1 1h10a1 1 0 0 0 1-1V4a1 1 0 0 0-1-1H3zM4.22 5.2a.62.62 0 0 1 .88.02l2.75 2.85c.23.24.23.62 0 .86L5.1 11.78a.63.63 0 0 1-.9-.86L6.53 8.5 4.2 6.08a.62.62 0 0 1 .02-.88z"/>
  </symbol>
  <symbol id="extension-vue" viewBox="0 0 100 100">
    <path d="M38 10H1l49 85 49-85H62L50 30 38 10z" fill="#41B883"/>
    <path d="M38 10H20l30 52 30-52H62L50 30 38 10z" fill="#354A5E"/>
  </symbol>
  <symbol id="extension-webhint" viewBox="0 0 45 45">
    <path d="M37.6,16l.86-1.58L41,10.17l-6,3.48a1.57,1.57,0,0,0-.4.29,1.85,1.85,0,0,0,0,2.59,1.87,1.87,0,0,0,2.6,0,1.73,1.73,0,0,0,.3-.41Z" style="fill:#3c3c3c"/>
    <path d="M36.79,18.35h0a2.89,2.89,0,0,1-1,.19,3,3,0,0,1-3-3,2.88,2.88,0,0,1,.17-1h0A8.52,8.52,0,0,0,28,13.28c-9.18,0-10.68,4.35-10.68,9.77,0,1.27.19,2.68-.66,4A3.83,3.83,0,0,1,13.24,29c-.58,0-2.64-.34-2.76-.94h.32a4,4,0,0,0,3.89-4.25V23H12.76a4.26,4.26,0,0,0-3.42,1.72A4.24,4.24,0,0,0,5.92,23H4v.85a4.27,4.27,0,0,0,4.27,4.26h.62c0,1.4,1.91,6.77,15.91,6.77,5.47,0,13.58-1,13.58-11.27A10.1,10.1,0,0,0,36.79,18.35Z" style="fill:#3c3c3c"/>
  </symbol>
</svg>
